<svg id="FdeF" xmlns="http://www.w3.org/2000/svg" viewBox="0 0 198.43 198.43"><rect width="198.43" height="198.43" style="fill:#005ca9"/><polygon points="22.06 27.49 33.02 27.49 33.02 31.8 22.06 31.8 22.06 41.7 17.45 41.7 17.45 17.41 34.8 17.41 34.8 21.72 22.06 21.72 22.06 27.49" style="fill:#fff"/><path d="M248.63,354.47c0-3.11-2-5.28-4.44-5.28s-4.45,2.17-4.45,5.28,2,5.15,4.45,5.15,4.44-2.1,4.44-5.15m4.66,0a9.09,9.09,0,1,1-9.1-9.49,9.15,9.15,0,0,1,9.1,9.49" transform="translate(-198.43 -321.73)" style="fill:#fff"/><path d="M273.17,363.43h-4.63V352.9c0-1-.31-3.57-3.35-3.57a3.43,3.43,0,0,0-3.51,3.57v10.53h-4.62v-18h4.41v1.75a6,6,0,0,1,4.66-2.21c4.24,0,7,3.19,7,7.95Z" transform="translate(-198.43 -321.73)" style="fill:#fff"/><path d="M286.11,349.29c-2.55,0-4.61,2.25-4.61,5.18a4.64,4.64,0,1,0,9.24,0,4.92,4.92,0,0,0-4.63-5.18m9.25,14.14h-4.42v-1.92a7.53,7.53,0,0,1-5.53,2.31c-4.68,0-8.57-4.06-8.57-9.38s3.89-9.42,8.57-9.42a7.63,7.63,0,0,1,5.33,2.1v-9.73h4.62Z" transform="translate(-198.43 -321.73)" style="fill:#fff"/><path d="M312,354.75a10.45,10.45,0,0,1-4.37,1.16c-2.28.25-3.68.73-3.68,2.06,0,1,1.19,1.72,3.05,1.72,2.76,0,5-.94,5-3.26Zm.14,7a7.25,7.25,0,0,1-5.53,2c-3.81,0-7.31-1.93-7.31-5.85s3.39-5.11,7.38-5.46c3-.28,5.15-.63,5.15-2.1,0-.95-1.23-1.71-3.29-1.71-1.65,0-3.54.73-4,2.27h-4.62c.45-3.43,3.75-6,8.47-6,7.32,0,7.88,4.73,7.88,6.16v9.39a11.14,11.14,0,0,0,.52,2.93h-4.23a6.53,6.53,0,0,1-.46-1.68" transform="translate(-198.43 -321.73)" style="fill:#fff"/><path d="M329.55,363.4c-5.28.56-8.08-2.62-8.08-7.56V349.5H319.3v-4.09h2.17v-4.59h4.62v4.59h3.25v4.09h-3.25v6.37c0,2.52,1.15,3.47,3.46,3.33Z" transform="translate(-198.43 -321.73)" style="fill:#fff"/><path d="M337.53,363.44h-4.62v-18h4.62Zm0-20h-4.62v-4.31h4.62Z" transform="translate(-198.43 -321.73)" style="fill:#fff"/><path d="M354.93,354.47c0-3.11-2-5.28-4.45-5.28s-4.44,2.17-4.44,5.28,2,5.15,4.44,5.15,4.45-2.1,4.45-5.15m4.65,0a9.09,9.09,0,1,1-9.1-9.49,9.15,9.15,0,0,1,9.1,9.49" transform="translate(-198.43 -321.73)" style="fill:#fff"/><path d="M379.46,363.43h-4.62V352.9c0-1-.31-3.57-3.36-3.57a3.42,3.42,0,0,0-3.5,3.57v10.53h-4.62v-18h4.41v1.75a6,6,0,0,1,4.66-2.21c4.23,0,7,3.19,7,7.95Z" transform="translate(-198.43 -321.73)" style="fill:#fff"/><path d="M224,381.67c-2.56,0-4.62,2.24-4.62,5.18a4.82,4.82,0,0,0,4.62,5.08,5.16,5.16,0,0,0,0-10.26m9.24,14.14h-4.41v-1.92a7.61,7.61,0,0,1-5.54,2.31c-4.68,0-8.57-4.06-8.57-9.38s3.89-9.42,8.57-9.42a7.58,7.58,0,0,1,5.33,2.1v-9.73h4.62Z" transform="translate(-198.43 -321.73)" style="fill:#fff"/><path d="M250.8,384.82a4.52,4.52,0,0,0-4.51-3.43,4.62,4.62,0,0,0-4.45,3.43Zm-9,3.78a4.6,4.6,0,0,0,4.52,3.57,4.17,4.17,0,0,0,3.81-2.1H255c-1,3.68-4.24,6.16-8.72,6.16a9.45,9.45,0,0,1,0-18.9c5.32,0,9.73,4.13,9.07,11.27Z" transform="translate(-198.43 -321.73)" style="fill:#fff"/><polygon points="22.06 93.99 33.02 93.99 33.02 98.3 22.06 98.3 22.06 108.2 17.45 108.2 17.45 83.91 34.8 83.91 34.8 88.22 22.06 88.22 22.06 93.99" style="fill:#fff"/><path d="M246,416c-1.85-.21-3.4,0-4.44,1.12a5.47,5.47,0,0,0-1.16,3.92v8.86h-4.62v-18h4.41v1.79a6,6,0,0,1,5.81-2.14Z" transform="translate(-198.43 -321.73)" style="fill:#fff"/><path d="M260.88,421.25a10.45,10.45,0,0,1-4.37,1.16c-2.28.25-3.68.74-3.68,2.07,0,1,1.19,1.71,3,1.71,2.77,0,5-.94,5-3.25Zm.14,7a7.25,7.25,0,0,1-5.53,2c-3.81,0-7.31-1.93-7.31-5.85s3.39-5.11,7.38-5.46c3-.28,5.14-.63,5.14-2.1,0-.94-1.22-1.71-3.29-1.71-1.64,0-3.53.73-4,2.27h-4.62c.45-3.43,3.75-6,8.47-6,7.31,0,7.87,4.73,7.87,6.17V427a11.21,11.21,0,0,0,.53,2.94h-4.23a6.73,6.73,0,0,1-.46-1.69" transform="translate(-198.43 -321.73)" style="fill:#fff"/><path d="M286.29,429.94h-4.62V419.4c0-1-.32-3.57-3.36-3.57a3.42,3.42,0,0,0-3.5,3.57v10.54h-4.62v-18h4.41v1.75a6,6,0,0,1,4.66-2.21c4.23,0,7,3.19,7,7.95Z" transform="translate(-198.43 -321.73)" style="fill:#fff"/><path d="M299.28,430.36a9.46,9.46,0,0,1,0-18.91A8.5,8.5,0,0,1,308,418H303a4.31,4.31,0,0,0-3.74-2.27c-2.56,0-4.62,2.38-4.62,5.28s2.06,5.19,4.62,5.19a4.25,4.25,0,0,0,3.78-2.32H308c-1.05,4.1-4.34,6.52-8.71,6.52" transform="translate(-198.43 -321.73)" style="fill:#fff"/><path d="M324.3,418.94a4.51,4.51,0,0,0-4.52-3.42,4.59,4.59,0,0,0-4.44,3.42Zm-9,3.78a4.59,4.59,0,0,0,4.51,3.58,4.19,4.19,0,0,0,3.82-2.11h4.93c-1,3.68-4.23,6.17-8.71,6.17a9.46,9.46,0,0,1,0-18.91c5.32,0,9.73,4.13,9.06,11.27Z" transform="translate(-198.43 -321.73)" style="fill:#fff"/></svg>