<?xml version="1.0" encoding="utf-8"?>
<!-- Generator: Adobe Illustrator 16.0.0, SVG Export Plug-In . SVG Version: 6.00 Build 0)  -->
<!DOCTYPE svg PUBLIC "-//W3C//DTD SVG 1.0//EN" "http://www.w3.org/TR/2001/REC-SVG-20010904/DTD/svg10.dtd">
<svg version="1.0" id="Calque_1" xmlns="http://www.w3.org/2000/svg" xmlns:xlink="http://www.w3.org/1999/xlink" x="0px" y="0px"
	 width="226px" height="61px" viewBox="0 0 226 61" enable-background="new 0 0 226 61" xml:space="preserve">
<path fill="#8EC24C" d="M8.561,40.129c3.421,2.158,9.891,4.537,14.129,4.537c2.752,0,5.131-0.892,5.131-4.313
	c0-3.051-3.196-4.092-7.51-5.354c-6.322-1.936-14.205-4.985-14.205-14.95c0-9.967,7.734-15.544,17.998-15.544
	c7.065,0,13.758,3.124,18.146,7.364l-6.62,8.403c-3.94-2.9-8.107-5.057-11.527-5.057c-2.379,0-4.686,1.116-4.686,3.867
	c0,3.123,3.42,4.238,8.032,5.727c6.768,2.157,14.055,5.131,14.055,15.098c0,10.338-7.883,15.841-18.89,15.841
	c-7.436,0-15.171-2.975-18.369-5.132L8.561,40.129z"/>
<path fill="#4EC3DA" d="M52.473,54.9H39.753V5.504h18.052c11.708,0,18.794,5.453,18.794,15.744c0,11.56-8.428,17.382-20.361,17.382
	h-3.766V54.9z M55.345,28.575c4.922,0,8.057-1.437,8.057-6.583c0-5.07-2.688-6.432-7.384-6.432h-3.544v13.015H55.345z"/>
<path fill="#843387" d="M85.924,34.138v13.866l21.31,6.063v0.969H73.918V34.138v-3.167V5.511h33.315v0.218l-21.31,6.063v19.178
	V34.138z M92.288,33.423c1.885,0,3.412-1.529,3.412-3.413c0-1.884-1.527-3.413-3.412-3.413c-1.882,0-3.411,1.528-3.411,3.413
	C88.877,31.894,90.405,33.423,92.288,33.423z"/>
<polygon fill="#59595A" points="85.924,48.004 73.918,52.881 73.918,55.035 107.233,55.035 107.233,54.066 "/>
<path fill="#59595A" d="M121.04,5.824c1.353,0,2.678,0.412,2.678,2.099c0,0.928-0.553,1.52-1.377,1.842
	c1.068,0.18,1.816,0.901,1.816,2.112c0,1.648-1.096,2.511-3.13,2.511h-2.574V5.824H121.04z M119.469,9.442h1.25
	c1.391,0,1.97-0.592,1.97-1.442c0-1.146-0.811-1.378-1.88-1.378h-1.34V9.442z M119.469,13.563h1.546c1.57,0,2.073-0.721,2.073-1.674
	c0-1.056-0.747-1.648-2.009-1.648h-1.61V13.563z M128.48,14.387h-0.991V8.862l-0.077-0.875h0.862l0.116,0.928
	c0.309-0.722,0.875-1.108,1.608-1.108c0.399,0,0.774,0.09,1.019,0.244l-0.31,0.889c-0.22-0.115-0.515-0.245-0.836-0.245
	c-0.825,0-1.353,0.748-1.392,1.61V14.387z M138.394,13.267l0.103,1.121h-0.901l-0.077-0.76l-0.037-0.013
	c-0.322,0.464-0.877,0.953-1.881,0.953c-1.791,0-2.55-1.236-2.55-3.104c0-2.279,1.094-3.657,3.23-3.657
	c0.4,0,1.289,0.103,2.113,0.412V13.267z M137.401,8.812c-0.231-0.103-0.746-0.22-1.288-0.22c-1.545,0-2.071,1.262-2.071,2.911
	c0,1.121,0.335,2.318,1.686,2.318c1.082,0,1.674-0.747,1.674-1.468V8.812z M142.086,14.387V8.953l-0.063-0.966h0.862l0.116,0.928
	c0.489-0.722,1.236-1.108,2.074-1.108c1.325,0,2.046,0.747,2.046,2.215v4.366h-1.004v-4.057c0-0.953-0.207-1.726-1.288-1.726
	c-0.992,0-1.738,0.812-1.738,1.584v4.198H142.086z M154.961,13.151l0.424,0.657c-0.412,0.373-1.146,0.76-2.085,0.76
	c-1.854,0-2.847-1.185-2.847-3.387c0-2.615,1.598-3.374,2.808-3.374c0.747,0,1.635,0.244,2.229,1.133l-0.671,0.528
	c-0.438-0.579-0.938-0.836-1.545-0.836c-1.042,0-1.816,0.772-1.816,2.51c0,1.52,0.541,2.602,1.92,2.602
	C153.917,13.743,154.446,13.563,154.961,13.151z M158.358,14.387V5.437h0.99v3.336c0.568-0.683,1.262-0.966,1.982-0.966
	c1.341,0,2.048,0.747,2.048,2.215v4.366h-1.004v-4.095c0-0.901-0.192-1.688-1.313-1.688c-0.941,0-1.714,0.812-1.714,1.584v4.198
	H158.358z M171.579,9.404c0,1.905-2.291,2.214-3.541,2.214c-0.128,0-0.231-0.013-0.335-0.013c0.051,1.056,0.566,2.164,1.932,2.164
	c0.863,0,1.403-0.412,1.647-0.592l0.389,0.657c-0.323,0.27-1.069,0.734-2.101,0.734c-2.008,0-2.859-1.365-2.859-3.284
	c0-1.906,1.03-3.477,2.989-3.477C170.896,7.807,171.579,8.45,171.579,9.404z M169.647,8.553c-1.378,0-1.906,1.301-1.944,2.318
	c0.077,0,0.154,0.013,0.258,0.013c0.875,0,2.678-0.206,2.678-1.365C170.639,8.915,170.227,8.553,169.647,8.553z M119.341,27.236
	h-1.005v-8.898c0.901-0.258,1.675-0.386,2.33-0.386c2.036,0,2.925,1.133,2.925,3.309c0,2.241-0.992,3.452-2.603,3.452
	c-0.644,0-1.235-0.206-1.647-0.489V27.236z M120.551,18.802c-0.451,0-0.875,0.09-1.21,0.206v4.301
	c0.372,0.322,0.992,0.567,1.57,0.567c1.211,0,1.674-1.185,1.674-2.485C122.585,19.896,122.199,18.802,120.551,18.802z
	 M127.965,24.533h-0.992v-5.525l-0.077-0.875h0.863l0.116,0.927c0.308-0.721,0.876-1.107,1.608-1.107c0.4,0,0.774,0.09,1.019,0.245
	l-0.309,0.888c-0.22-0.116-0.516-0.245-0.838-0.245c-0.824,0-1.352,0.747-1.391,1.609V24.533z M135.458,17.952
	c0.888,0,2.639,0.283,2.639,3.193c0,2.511-1.248,3.567-2.858,3.567c-1.636,0-2.64-1.108-2.64-3.425
	C132.599,18.622,134.183,17.952,135.458,17.952z M137.081,21.365c0-1.546-0.452-2.627-1.7-2.627c-1.224,0-1.778,1.03-1.778,2.421
	c0,1.274,0.258,2.782,1.727,2.782C136.552,23.94,137.081,22.768,137.081,21.365z M142.461,27.236h-1.005v-9.709
	c0-0.901,0.219-2.164,2.072-2.164c0.503,0,1.225,0.18,1.572,0.374l-0.283,0.748c-0.335-0.168-0.825-0.31-1.262-0.31
	c-0.837,0-1.095,0.476-1.095,1.327v0.631h2.021v0.863h-2.021V27.236z M151.563,19.549c0,1.906-2.292,2.215-3.541,2.215
	c-0.129,0-0.231-0.013-0.335-0.013c0.051,1.056,0.566,2.163,1.932,2.163c0.863,0,1.403-0.412,1.647-0.592l0.387,0.657
	c-0.321,0.27-1.067,0.734-2.099,0.734c-2.008,0-2.859-1.365-2.859-3.284c0-1.906,1.03-3.477,2.989-3.477
	C150.88,17.952,151.563,18.596,151.563,19.549z M149.631,18.699c-1.378,0-1.906,1.301-1.944,2.318c0.077,0,0.154,0.013,0.258,0.013
	c0.875,0,2.678-0.207,2.678-1.365C150.622,19.06,150.21,18.699,149.631,18.699z M154.509,23.373
	c0.374,0.258,1.004,0.567,1.751,0.567c0.721,0,1.274-0.335,1.274-1.095c0-0.747-0.579-0.979-1.326-1.159
	c-1.03-0.245-1.943-0.566-1.943-1.842c0-1.288,1.028-1.893,2.149-1.893c0.915,0,1.674,0.399,2.139,0.863l-0.58,0.592
	c-0.426-0.399-0.94-0.696-1.597-0.696c-0.555,0-1.172,0.284-1.172,0.992c0,0.76,0.631,0.94,1.364,1.159
	c0.929,0.283,1.944,0.592,1.944,1.893c0,1.262-0.927,1.958-2.239,1.958c-1.043,0-1.88-0.386-2.151-0.619L154.509,23.373z
	 M161.525,23.373c0.372,0.258,1.004,0.567,1.75,0.567c0.722,0,1.275-0.335,1.275-1.095c0-0.747-0.579-0.979-1.326-1.159
	c-1.03-0.245-1.943-0.566-1.943-1.842c0-1.288,1.028-1.893,2.149-1.893c0.914,0,1.675,0.399,2.137,0.863l-0.579,0.592
	c-0.426-0.399-0.939-0.696-1.596-0.696c-0.555,0-1.173,0.284-1.173,0.992c0,0.76,0.632,0.94,1.365,1.159
	c0.927,0.283,1.944,0.592,1.944,1.893c0,1.262-0.927,1.958-2.24,1.958c-1.043,0-1.881-0.386-2.15-0.619L161.525,23.373z
	 M169.235,15.634c0.373,0,0.67,0.296,0.67,0.67c0,0.399-0.297,0.682-0.683,0.682c-0.387,0-0.658-0.283-0.658-0.682
	C168.564,15.93,168.85,15.634,169.235,15.634z M168.732,24.533v-6.4h1.005v6.4H168.732z M175.916,17.952
	c0.89,0,2.641,0.283,2.641,3.193c0,2.511-1.249,3.567-2.859,3.567c-1.635,0-2.639-1.108-2.639-3.425
	C173.059,18.622,174.642,17.952,175.916,17.952z M177.54,21.365c0-1.546-0.452-2.627-1.701-2.627c-1.223,0-1.776,1.03-1.776,2.421
	c0,1.274,0.257,2.782,1.725,2.782C177.011,23.94,177.54,22.768,177.54,21.365z M181.916,24.533v-5.435l-0.065-0.966h0.863
	l0.115,0.927c0.489-0.721,1.236-1.107,2.074-1.107c1.326,0,2.047,0.747,2.047,2.214v4.366h-1.004v-4.057
	c0-0.953-0.206-1.725-1.287-1.725c-0.992,0-1.739,0.811-1.739,1.583v4.199H181.916z M190.618,24.533v-5.435l-0.064-0.966h0.862
	l0.114,0.927c0.491-0.721,1.238-1.107,2.074-1.107c1.327,0,2.048,0.747,2.048,2.214v4.366h-1.005v-4.057
	c0-0.953-0.205-1.725-1.287-1.725c-0.992,0-1.738,0.811-1.738,1.583v4.199H190.618z M203.853,19.549
	c0,1.906-2.292,2.215-3.542,2.215c-0.128,0-0.231-0.013-0.334-0.013c0.051,1.056,0.566,2.163,1.931,2.163
	c0.863,0,1.404-0.412,1.648-0.592l0.388,0.657c-0.322,0.27-1.069,0.734-2.1,0.734c-2.01,0-2.859-1.365-2.859-3.284
	c0-1.906,1.03-3.477,2.988-3.477C203.17,17.952,203.853,18.596,203.853,19.549z M201.921,18.699c-1.378,0-1.906,1.301-1.944,2.318
	c0.077,0,0.154,0.013,0.257,0.013c0.876,0,2.679-0.207,2.679-1.365C202.912,19.06,202.5,18.699,201.921,18.699z M207.983,15.582
	v7.147c0,0.863,0.167,1.185,0.811,1.185c0.296,0,0.605-0.09,0.862-0.219l0.232,0.696c-0.271,0.18-0.785,0.322-1.313,0.322
	c-1.506,0-1.583-0.992-1.583-1.842v-7.289H207.983z M213.544,15.582v7.147c0,0.863,0.167,1.185,0.811,1.185
	c0.296,0,0.604-0.09,0.862-0.219l0.233,0.696c-0.271,0.18-0.786,0.322-1.314,0.322c-1.506,0-1.583-0.992-1.583-1.842v-7.289H213.544
	z M222.568,19.549c0,1.906-2.292,2.215-3.542,2.215c-0.128,0-0.231-0.013-0.334-0.013c0.051,1.056,0.566,2.163,1.933,2.163
	c0.861,0,1.402-0.412,1.647-0.592l0.387,0.657c-0.321,0.27-1.069,0.734-2.1,0.734c-2.009,0-2.858-1.365-2.858-3.284
	c0-1.906,1.03-3.477,2.987-3.477C221.887,17.952,222.568,18.596,222.568,19.549z M220.637,18.699c-1.378,0-1.905,1.301-1.944,2.318
	c0.077,0,0.154,0.013,0.257,0.013c0.877,0,2.68-0.207,2.68-1.365C221.629,19.06,221.217,18.699,220.637,18.699z M122.354,28.33
	v-2.602h0.992v7.791l0.103,1.159h-0.889l-0.089-0.772l-0.053-0.012c-0.503,0.707-1.21,0.965-1.894,0.965
	c-1.879,0-2.511-1.481-2.511-3.193c0-2.164,1.082-3.567,3.014-3.567C121.543,28.098,121.941,28.188,122.354,28.33z M122.354,29.179
	c-0.296-0.154-0.772-0.309-1.365-0.309c-1.402,0-1.982,1.171-1.982,2.678c0,1.327,0.36,2.537,1.674,2.537
	c1.056,0,1.674-0.734,1.674-1.378V29.179z M131.571,29.694c0,1.906-2.293,2.215-3.542,2.215c-0.128,0-0.231-0.013-0.334-0.013
	c0.052,1.055,0.567,2.163,1.932,2.163c0.861,0,1.404-0.411,1.648-0.592l0.386,0.657c-0.321,0.27-1.068,0.733-2.098,0.733
	c-2.011,0-2.86-1.365-2.86-3.284c0-1.906,1.03-3.476,2.987-3.476C130.889,28.098,131.571,28.742,131.571,29.694z M129.641,28.845
	c-1.378,0-1.907,1.3-1.945,2.318c0.077,0,0.154,0.013,0.257,0.013c0.877,0,2.679-0.207,2.679-1.366
	C130.631,29.205,130.219,28.845,129.641,28.845z M134.518,33.519c0.372,0.258,1.005,0.566,1.75,0.566
	c0.723,0,1.276-0.335,1.276-1.093c0-0.748-0.58-0.979-1.327-1.161c-1.03-0.245-1.944-0.565-1.944-1.841
	c0-1.288,1.029-1.893,2.15-1.893c0.913,0,1.674,0.399,2.137,0.862l-0.578,0.592c-0.426-0.399-0.94-0.695-1.597-0.695
	c-0.554,0-1.173,0.283-1.173,0.991c0,0.761,0.633,0.94,1.365,1.159c0.927,0.283,1.945,0.593,1.945,1.894
	c0,1.261-0.928,1.957-2.242,1.957c-1.042,0-1.88-0.386-2.149-0.618L134.518,33.519z M146.168,33.519
	c0.372,0.258,1.004,0.566,1.75,0.566c0.722,0,1.275-0.335,1.275-1.093c0-0.748-0.579-0.979-1.326-1.161
	c-1.03-0.245-1.943-0.565-1.943-1.841c0-1.288,1.028-1.893,2.149-1.893c0.914,0,1.674,0.399,2.137,0.862l-0.579,0.592
	c-0.426-0.399-0.939-0.695-1.596-0.695c-0.555,0-1.173,0.283-1.173,0.991c0,0.761,0.632,0.94,1.365,1.159
	c0.927,0.283,1.944,0.593,1.944,1.894c0,1.261-0.927,1.957-2.241,1.957c-1.042,0-1.88-0.386-2.149-0.618L146.168,33.519z
	 M158.358,33.559l0.104,1.119h-0.901l-0.077-0.759l-0.038-0.014c-0.322,0.464-0.877,0.953-1.881,0.953
	c-1.791,0-2.549-1.236-2.549-3.104c0-2.279,1.093-3.656,3.231-3.656c0.398,0,1.287,0.102,2.111,0.412V33.559z M157.366,29.102
	c-0.231-0.103-0.744-0.219-1.287-0.219c-1.545,0-2.071,1.262-2.071,2.91c0,1.122,0.334,2.318,1.686,2.318
	c1.083,0,1.673-0.747,1.673-1.468V29.102z M163.058,25.728v7.147c0,0.864,0.166,1.185,0.811,1.185c0.296,0,0.604-0.089,0.862-0.22
	l0.232,0.697c-0.271,0.18-0.786,0.321-1.313,0.321c-1.507,0-1.584-0.991-1.584-1.843v-7.288H163.058z M172.546,33.559l0.103,1.119
	h-0.9l-0.077-0.759l-0.04-0.014c-0.321,0.464-0.875,0.953-1.88,0.953c-1.79,0-2.551-1.236-2.551-3.104
	c0-2.279,1.096-3.656,3.232-3.656c0.4,0,1.289,0.102,2.113,0.412V33.559z M171.554,29.102c-0.231-0.103-0.747-0.219-1.288-0.219
	c-1.545,0-2.073,1.262-2.073,2.91c0,1.122,0.335,2.318,1.688,2.318c1.081,0,1.674-0.747,1.674-1.468V29.102z M177.242,34.678h-0.992
	v-5.524l-0.077-0.875h0.863l0.115,0.927c0.309-0.722,0.877-1.107,1.609-1.107c0.4,0,0.773,0.09,1.019,0.244l-0.309,0.889
	c-0.22-0.116-0.516-0.245-0.838-0.245c-0.824,0-1.353,0.747-1.391,1.609V34.678z M183.009,25.78c0.374,0,0.67,0.296,0.67,0.669
	c0,0.399-0.296,0.683-0.682,0.683c-0.387,0-0.657-0.283-0.657-0.683C182.34,26.076,182.622,25.78,183.009,25.78z M182.508,34.678
	v-6.399h1.004v6.399H182.508z M191.725,29.694c0,1.906-2.292,2.215-3.541,2.215c-0.129,0-0.231-0.013-0.334-0.013
	c0.051,1.055,0.566,2.163,1.931,2.163c0.863,0,1.404-0.411,1.649-0.592l0.386,0.657c-0.322,0.27-1.069,0.733-2.099,0.733
	c-2.009,0-2.858-1.365-2.858-3.284c0-1.906,1.029-3.476,2.986-3.476C191.043,28.098,191.725,28.742,191.725,29.694z M189.794,28.845
	c-1.378,0-1.906,1.3-1.944,2.318c0.077,0,0.154,0.013,0.257,0.013c0.877,0,2.68-0.207,2.68-1.366
	C190.786,29.205,190.374,28.845,189.794,28.845z M190.064,24.75c0.347,0.09,0.799,0.232,0.799,0.58c0,0.154-0.117,0.348-0.285,0.541
	c-0.308,0.348-0.861,0.889-1.531,1.533l-0.399-0.323L190.064,24.75z M194.671,33.519c0.374,0.258,1.006,0.566,1.752,0.566
	c0.722,0,1.274-0.335,1.274-1.093c0-0.748-0.579-0.979-1.327-1.161c-1.028-0.245-1.943-0.565-1.943-1.841
	c0-1.288,1.029-1.893,2.151-1.893c0.913,0,1.673,0.399,2.137,0.862l-0.58,0.592c-0.424-0.399-0.939-0.695-1.597-0.695
	c-0.553,0-1.172,0.283-1.172,0.991c0,0.761,0.632,0.94,1.366,1.159c0.927,0.283,1.943,0.593,1.943,1.894
	c0,1.261-0.928,1.957-2.24,1.957c-1.044,0-1.881-0.386-2.15-0.618L194.671,33.519z M122.354,38.476v-2.603h0.992v7.791l0.103,1.159
	h-0.889l-0.089-0.772l-0.053-0.012c-0.503,0.707-1.21,0.965-1.894,0.965c-1.879,0-2.511-1.481-2.511-3.193
	c0-2.164,1.082-3.566,3.014-3.566C121.543,38.244,121.941,38.333,122.354,38.476z M122.354,39.323
	c-0.296-0.153-0.772-0.308-1.365-0.308c-1.402,0-1.982,1.172-1.982,2.678c0,1.327,0.36,2.537,1.674,2.537
	c1.056,0,1.674-0.734,1.674-1.378V39.323z M132.047,38.424v5.461l0.091,0.938h-0.889l-0.104-0.875h-0.023
	c-0.479,0.734-1.25,1.056-2.024,1.056c-1.377,0-2.072-0.721-2.072-2.202v-4.378h1.004v4.094c0,0.967,0.193,1.7,1.326,1.7
	c0.902,0,1.701-0.799,1.701-1.545v-4.249H132.047z M141.379,47.527h-1.006V38.63c0.901-0.258,1.676-0.386,2.332-0.386
	c2.035,0,2.923,1.133,2.923,3.308c0,2.241-0.991,3.452-2.601,3.452c-0.645,0-1.236-0.206-1.648-0.489V47.527z M142.589,39.092
	c-0.451,0-0.875,0.091-1.21,0.208v4.3c0.373,0.322,0.991,0.566,1.571,0.566c1.21,0,1.673-1.185,1.673-2.484
	C144.623,40.188,144.237,39.092,142.589,39.092z M153.994,43.703l0.104,1.12h-0.901l-0.077-0.76l-0.038-0.013
	c-0.322,0.464-0.876,0.953-1.88,0.953c-1.791,0-2.55-1.236-2.55-3.104c0-2.279,1.094-3.656,3.231-3.656
	c0.399,0,1.287,0.101,2.111,0.411V43.703z M153.002,39.246c-0.23-0.102-0.744-0.218-1.287-0.218c-1.545,0-2.072,1.262-2.072,2.911
	c0,1.12,0.335,2.317,1.688,2.317c1.082,0,1.672-0.747,1.672-1.468V39.246z M158.693,44.823h-0.992V39.3l-0.077-0.876h0.862
	l0.116,0.927c0.309-0.721,0.875-1.106,1.609-1.106c0.398,0,0.773,0.089,1.018,0.243l-0.309,0.89
	c-0.22-0.117-0.517-0.245-0.838-0.245c-0.824,0-1.353,0.746-1.39,1.609V44.823z M164.949,35.873v2.551h1.828v0.862h-1.828v3.812
	c0,0.851,0.334,1.12,0.94,1.12c0.438,0,0.759-0.179,0.979-0.31l0.295,0.67c-0.372,0.258-0.939,0.426-1.454,0.426
	c-1.713,0-1.764-0.992-1.764-1.932v-7.199H164.949z M170.549,35.925c0.372,0,0.67,0.296,0.67,0.671c0,0.398-0.298,0.682-0.684,0.682
	s-0.656-0.283-0.656-0.682C169.879,36.221,170.162,35.925,170.549,35.925z M170.046,44.823v-6.399h1.005v6.399H170.046z
	 M178.904,43.587l0.426,0.656c-0.414,0.374-1.146,0.761-2.088,0.761c-1.854,0-2.846-1.185-2.846-3.388
	c0-2.614,1.597-3.372,2.809-3.372c0.746,0,1.634,0.243,2.227,1.133l-0.67,0.526c-0.438-0.58-0.939-0.836-1.545-0.836
	c-1.042,0-1.815,0.772-1.815,2.512c0,1.519,0.54,2.601,1.918,2.601C177.861,44.18,178.389,43.999,178.904,43.587z M187.322,38.424
	v5.461l0.092,0.938h-0.89l-0.103-0.875h-0.026c-0.476,0.734-1.249,1.056-2.021,1.056c-1.377,0-2.074-0.721-2.074-2.202v-4.378h1.006
	v4.094c0,0.967,0.193,1.7,1.325,1.7c0.901,0,1.701-0.799,1.701-1.545v-4.249H187.322z M192.033,35.873v7.147
	c0,0.864,0.168,1.186,0.812,1.186c0.296,0,0.604-0.09,0.861-0.221l0.232,0.697c-0.27,0.179-0.786,0.321-1.313,0.321
	c-1.507,0-1.584-0.992-1.584-1.843v-7.288H192.033z M197.232,35.925c0.373,0,0.67,0.296,0.67,0.671c0,0.398-0.297,0.682-0.683,0.682
	c-0.387,0-0.656-0.283-0.656-0.682C196.563,36.221,196.847,35.925,197.232,35.925z M196.73,44.823v-6.399h1.004v6.399H196.73z
	 M205.949,39.84c0,1.906-2.292,2.215-3.542,2.215c-0.128,0-0.231-0.014-0.334-0.014c0.051,1.057,0.566,2.165,1.933,2.165
	c0.861,0,1.402-0.413,1.647-0.593l0.387,0.656c-0.322,0.271-1.069,0.734-2.1,0.734c-2.009,0-2.859-1.365-2.859-3.284
	c0-1.907,1.031-3.476,2.988-3.476C205.268,38.244,205.949,38.888,205.949,39.84z M204.018,38.99c-1.378,0-1.905,1.3-1.944,2.317
	c0.077,0,0.154,0.013,0.257,0.013c0.876,0,2.68-0.205,2.68-1.365C205.01,39.351,204.597,38.99,204.018,38.99z M210.081,44.823
	h-0.992V39.3l-0.077-0.876h0.863l0.115,0.927c0.309-0.721,0.876-1.106,1.608-1.106c0.399,0,0.774,0.089,1.018,0.243l-0.309,0.89
	c-0.219-0.117-0.516-0.245-0.838-0.245c-0.824,0-1.351,0.746-1.389,1.609V44.823z M122.882,49.984c0,1.907-2.292,2.216-3.541,2.216
	c-0.129,0-0.231-0.014-0.335-0.014c0.052,1.058,0.566,2.165,1.932,2.165c0.863,0,1.403-0.412,1.647-0.593l0.387,0.656
	c-0.321,0.271-1.068,0.734-2.099,0.734c-2.008,0-2.859-1.364-2.859-3.284c0-1.905,1.03-3.476,2.988-3.476
	C122.199,48.39,122.882,49.033,122.882,49.984z M120.95,49.135c-1.378,0-1.906,1.302-1.944,2.318c0.077,0,0.154,0.013,0.258,0.013
	c0.875,0,2.678-0.204,2.678-1.364C121.941,49.495,121.529,49.135,120.95,49.135z M126.034,54.969v-5.434l-0.09-0.967h0.836
	l0.115,0.915c0.452-0.708,1.186-1.094,1.971-1.094c0.852,0,1.495,0.347,1.842,1.196c0.412-0.798,1.185-1.196,1.996-1.196
	c1.327,0,2.061,0.798,2.061,2.266v4.313h-0.991v-4.043c0-0.914-0.193-1.738-1.327-1.738c-0.889,0-1.546,0.747-1.546,1.531v4.25
	h-0.991v-4.03c0-0.823-0.128-1.751-1.326-1.751c-0.913,0-1.558,0.784-1.558,1.597v4.185H126.034z M139.421,57.673h-1.004v-8.897
	c0.9-0.259,1.675-0.386,2.331-0.386c2.034,0,2.923,1.133,2.923,3.308c0,2.242-0.992,3.452-2.601,3.452
	c-0.644,0-1.236-0.205-1.649-0.489V57.673z M140.631,49.237c-0.449,0-0.874,0.091-1.21,0.208v4.3
	c0.375,0.321,0.992,0.566,1.572,0.566c1.21,0,1.674-1.184,1.674-2.483C142.667,50.333,142.28,49.237,140.631,49.237z M148.048,46.02
	v7.146c0,0.864,0.166,1.187,0.81,1.187c0.297,0,0.605-0.091,0.863-0.22l0.231,0.695c-0.27,0.181-0.784,0.322-1.313,0.322
	c-1.505,0-1.582-0.992-1.582-1.842V46.02H148.048z M155.037,48.39c0.888,0,2.641,0.283,2.641,3.193c0,2.511-1.25,3.566-2.859,3.566
	c-1.635,0-2.641-1.107-2.641-3.426C152.178,49.059,153.763,48.39,155.037,48.39z M156.66,51.801c0-1.545-0.45-2.627-1.7-2.627
	c-1.224,0-1.776,1.03-1.776,2.421c0,1.275,0.258,2.782,1.726,2.782C156.133,54.377,156.66,53.205,156.66,51.801z M165.863,56.489
	c-0.322,1.249-1.146,1.904-2.511,1.904c-1.313,0-1.944-0.63-1.944-1.622c0-1.043,0.786-1.79,1.418-2.202
	c-1.096-0.115-1.805-0.644-1.805-2.111v-3.89h1.004v3.618c0,0.979,0.092,1.727,1.457,1.727c0.978,0,1.57-0.617,1.57-1.507v-3.838
	h0.979v6.144C166.031,55.278,165.979,56.037,165.863,56.489z M163.456,57.622c1.172,0,1.584-1.019,1.584-2.421V54.08
	c-1.545,0.644-2.666,1.341-2.666,2.563C162.374,57.274,162.747,57.622,163.456,57.622z M174.244,49.984
	c0,1.907-2.293,2.216-3.541,2.216c-0.129,0-0.231-0.014-0.335-0.014c0.05,1.058,0.566,2.165,1.932,2.165
	c0.863,0,1.402-0.412,1.647-0.593l0.387,0.656c-0.321,0.271-1.067,0.734-2.1,0.734c-2.008,0-2.858-1.364-2.858-3.284
	c0-1.905,1.03-3.476,2.989-3.476C173.562,48.39,174.244,49.033,174.244,49.984z M172.312,49.135c-1.377,0-1.905,1.302-1.943,2.318
	c0.077,0,0.154,0.013,0.258,0.013c0.875,0,2.678-0.204,2.678-1.364C173.304,49.495,172.892,49.135,172.312,49.135z M182.38,48.568
	v5.461l0.091,0.939h-0.889l-0.104-0.875h-0.024c-0.479,0.733-1.25,1.056-2.023,1.056c-1.378,0-2.073-0.721-2.073-2.202v-4.379h1.004
	v4.096c0,0.966,0.194,1.701,1.327,1.701c0.901,0,1.701-0.8,1.701-1.547v-4.25H182.38z M187.09,54.969h-0.992v-5.523l-0.077-0.877
	h0.864l0.114,0.927c0.31-0.72,0.878-1.105,1.61-1.105c0.4,0,0.772,0.09,1.018,0.244l-0.309,0.889
	c-0.219-0.116-0.517-0.245-0.838-0.245c-0.824,0-1.352,0.747-1.391,1.609V54.969z"/>
</svg>
